<svg xmlns="http://www.w3.org/2000/svg" width="2381" height="2507" viewBox="0 0 2381 2507">
  <defs>
    <style>
      .cls-1 {
        fill: none;
        stroke: #000;
        stroke-width: 2.51px;
        fill-rule: evenodd;
      }
    </style>
  </defs>
  <path class="cls-1" d="M1766.18,1925.81c12.36,9.34,41.23-20.15,69.39-13.34,25.62,6.2,36.95,33.85,58.72,70.72,23.13,39.19,43.54,60.08,56.04,60.05,24.61-.06,53.16-37.63,60.72-74.72,3.12-15.31,2.13-27.35,12.01-38.7,5.73-6.59,30.86-15.22,65.38-15.35,3.65-.01,13.25.19,14.68,4.34,2.02,5.82-14.1,15.17-12.01,20.01,1.8,4.16,16.76.55,27.36,5.68,11.24,5.43,18.46,17.34,16.01,21.35-3.33,5.44-23.78-4.92-30.69,3.33-2.65,3.17-2.29,7.59-2,9.34,2.19,13.08,26.18,18.25,25.35,24.02-0.71,4.97-19.47,3.08-28.02,12.01-20.32,21.24,8.54,88.75,22.68,87.07,4.07-.48,5.53-8.16,10.01-12.34,12.93-12.03,31.44-4.14,57.38-7.34,19.79-2.44,48.17-11.84,52.71-29.36,2.8-10.77-5.83-17.86-2-30.02,3.21-10.19,13.3-13.72,18.68-21.35,9.18-13,3.69-21.35,12.68-33.36,13.05-17.44,43.32-24.97,58.71-14.35,17.81,12.29,7.22,46.13,24.69,55.05,7.17,3.66,16.55,1.88,21.35-2.67,12.58-11.91.84-49.32-14.01-56.05-1.11-.5-3.89-1.59-4-3.33-0.19-2.97,8.01-4.24,10.67-9.01,6.03-10.82-11.75-31.12-17.35-37.03-17.32-18.3-35.66-23.47-42.7-23.02-14.3.92-31.37,9.88-35.36,23.69-2.48,8.58,2.94,21.02-1.33,24.02-2.75,1.92-6.4-1.5-10.01.33-4.77,2.42-3.28,10.25-8.01,14.68-4.16,3.9-7.7,1.61-12.01,5-7.17,5.65-3.8,15.38-10.67,22.02-4.8,4.64-12.93,6.83-16.68,4-6.16-4.63,1.9-21.26-4.01-25.35-4.25-2.95-13.73,4.25-21.35,4.67-16.64.92-35.45-14.65-36.03-28.69-0.55-13.41,17.44-20.57,15.35-29.69-2.87-12.52-40.32-15.7-72.73-13.01-58.19,4.82-87.55,21.02-96.74,40.7-9.46,20.24,2.77,34.81-7.34,59.38-6.77,16.45-21.57,34.18-36.03,33.36-13.85-.78-21.6-18.21-35.36-42.03-31.47-54.48-66.1-79.82-78.73-79.4-1.41.05-5.39,0.39-7.34-2-3.6-4.41,3.87-13.65,1.33-22.02-2.04-6.72-8.92-12.45-14.68-12.01-4.66.35-6.43,4.97-10.67,6.67-8.09,3.25-14.9-2.94-23.35-1.33-6.02,1.14-11.33,5.09-16.02,11.34C1761.88,1896.97,1757.33,1919.13,1766.18,1925.81Z"/>
</svg>
