<svg xmlns="http://www.w3.org/2000/svg" width="2381" height="2507" viewBox="0 0 2381 2507">
  <defs>
    <style>
      .cls-1 {
        fill: none;
        stroke: #000;
        stroke-width: 2.51px;
        fill-rule: evenodd;
      }
    </style>
  </defs>
  <path class="cls-1" d="M905,2442c28.969-.99,40.885-77.76,78.548-151.89,21.692-42.7,51.882-79.04,66.722-90.74,75.24-59.34,191.43-42.97,214.84-47.37,1.12-.21,3.88-0.83,6,0.66,5.16,3.63-.13,15.12,5.34,20.69,3.73,3.79,11.19,4.33,14.68,1.33,3.7-3.18,1.63-10.68,3.34-15.34,5.16-14.09,28.92-21.97,36.69-15.35,5.72,4.87-.59,14.72,4.01,18.68,16.02,13.84,124.37-78.18,136.11-98.74,0.63-1.11,1.93-3.67,4.67-4.67,8.19-3,17.76,13.08,31.36,14.01,9.5,0.65,12.03-5.22,20.68-6.01,22.44-2.05,36.06,26.68,54.71,22.69,11.4-2.44,17.71-19.35,26.02-17.35,4.45,1.07,4.74,6.22,10.01,8.01,5.8,1.97,13.65-.94,16.68-6.01,1.91-3.18.58-5.41,2-8.01,6.61-12.12,56.81-9.86,68.06,16.35,1.23,4.79,3,8.13,5.53,8.64,7.01,1.38,21.49-29.4,34-43.34a146.359,146.359,0,0,1,11-11m0-.24c5.24,16.24,19.14,27.43,34.87,28.93,19.45,1.85,38.95-11.25,38.03-20.02-1.26-11.92-41.62-9.49-61.38-34.03-17.63-21.88-23.25-62.39-1.34-86.07a23.783,23.783,0,0,0,12.32-8.01c7.87-10.25,6.22-29.07-8-46.5m0.35,0.47c-5.02.49-10.8-2.78-13.34-7.34-4.42-7.93,2.94-19.88-.67-22.68-2.61-2.03-7.79,3.12-12.01,1.33-6.07-2.58-3.94-15.57-10.67-22.02-3.61-3.46-8.8-5.02-15.16-5.06a90.118,90.118,0,0,0-14.5-24.7c-33.24-39.96-88.33-25.17-179-33.5-26.76-2.45-79.55-8.73-123.5,9.5-21.68,9-39.23,21.9-43.5,28-5.1,7.29-7.53,14.33-16,19-13.62,7.52-33.52,3.77-46-6.5-8.56-7.04-9.84-14.16-15.5-23-10.71-16.72-31.62-30.31-49-31.5-49.14-3.36-88.47,118.31-150.5,172.75-23.95,21.02-76.69,55.16-114,94-4.2,4.37-7.794,8.65-12,13-19.515,20.22-32.573,36.33-42,56-3.064,6.4-3.75,11.19-2,15,2.411,5.26,9.546,6.09,10.5,10.95,1,5.07-5.822,8.34-5.5,14.05,0.325,5.78,7.792,9.03,10,13,8.479,15.25-16.279,44.19-21,50-37.294,45.94-29.83,137.53,1.5,251.95"/>
</svg>
