<svg xmlns="http://www.w3.org/2000/svg" width="2381" height="2507" viewBox="0 0 2381 2507">
  <defs>
    <style>
      .cls-1 {
        fill: none;
        stroke: #000;
        stroke-width: 2.51px;
        fill-rule: evenodd;
      }
    </style>
  </defs>
  <path class="cls-1" d="M1705.47,2082.94c-1.15,5.7,2.53,26.29-5.34,33.36-5.62,5.04-12.79,1.86-17.35,6.67-8.4,8.88,2.85,33.45,10.68,47.04,34.28,59.57,104.85,94.75,110.75,97.41,104.71,47.22,384.09,207.2,411,230.52,1.45,1.26,7.64,6.86,12.01,5.01,4.01-1.69,4.6-9.15,4.67-10.68,2.37-47.58-223.02-141.23-235.52-147.45a17.764,17.764,0,0,1-5.34-4,23.186,23.186,0,0,1-2.67-4.01c-7.14-14.55-90.05-21.57-113.42-58.04-6.14-9.58-5.49-30.08-18.68-37.37-9.61-5.3-15.66.37-25.36-4.67-13.66-7.09-14.61-28.38-25.35-30.02-6.37-.98-10.27,6.16-16.68,7.34-18.96,3.49-43.59-29.3-53.38-58.05-13.26-38.97-2.78-81.89,20.68-118.76C1727.51,2049.17,1709.26,2064.15,1705.47,2082.94Z"/>
</svg>
