<svg xmlns="http://www.w3.org/2000/svg" width="2381" height="2507" viewBox="0 0 2381 2507">
  <defs>
    <style>
      .cls-1 {
        fill: none;
        stroke: red;
        stroke-width: 2.51px;
        fill-rule: evenodd;
      }
    </style>
  </defs>
  <path class="cls-1" d="M1740,1419c18.93-4.4,37.69,4.44,53,26,7.68,10.81,11.79,20.76,11.39,34.08-0.89,29.98-1.8,55.96,4.02,76.72,4.12,14.69,15.13,44.36,44.2,55.71,22.65,8.84,54-.87,102.45-23.12,17.73-8.15,50.13-22.42,68.3-8.41,13.14,10.13,9.34,26.82,22.64,35.02,11.66,7.19,27.16-1.41,34-5,57.16-30.04,149.32-8.31,164.34,1.51,0.15,0.1,5.7,4.39,7.03,3.15,2.29-2.12-5.92-10.03-4.02-19.97,2.02-10.53,23.23-12.25,23.65-18.69,0.29-4.53-5.83-6.72-9-14-3.22-7.41-3.47-16.61,1.43-19.86,4.58-3.04,10.52,1.96,14.06-1.05,3.98-3.39,2.44-14.8-3.02-22.07-10.33-13.79-35.3-13.27-53.23-6.31-10.76,4.18-17.94,8.37-27.24,13.29-10.43,5.52-38.05,17.78-53,5-3.2-2.73-6.6-8.45-8-11-15.01-27.38-65.79-20.35-71.47-43.03-3.14-12.55,11.04-20.22,8.04-33.63-4.21-18.79-37.21-29.42-63.28-28.38-23.78.95-55.05,12.55-76.34,39.94-9.08,11.68-14.09,22.75-27.12,32.58-8.1,6.12-27.35,18.51-39.17,11.57-16.11-9.45-3.2-31.1-6.66-70.05-2.89-32.55-.39-60.2-21.47-72.9-8.05-4.85-25.97-12.64-25.11-23.12C1782.18,1305.11,1722.59,1423.05,1740,1419Z"/>
</svg>
