<svg xmlns="http://www.w3.org/2000/svg" width="2381" height="2507" viewBox="0 0 2381 2507">
  <defs>
    <style>
      .cls-1 {
        fill: none;
        stroke: red;
        stroke-width: 2.51px;
        fill-rule: evenodd;
      }
    </style>
  </defs>
  <path class="cls-1" d="M1710.8,72.978c12.24-7.08,10.93-58.463-18.68-70.392-20.96-8.448-50.13,5.281-53.37,21.351-3.01,14.882,17.77,24.33,16.01,41.367-1.98,19.144-29.56,37.917-48.71,33.029-15.31-3.908-15.81-20.605-31.36-26.021-18.13-6.316-34.8,11.466-49.37,3.336-12.94-7.222-9-28.008-20.68-32.693-15.04-6.031-33.27,24.069-56.72,21.351-12.77-1.482-23.37-16.029-32.02-12.01-4.51,2.1-7.55,8.25-6.01,12.01,2.35,5.712,15.37,2.7,23.36,8.006,19.09,12.691,9.17,49.085,9.34,71.391,0,1.015.05,5.013-2,6-4.25,2.049-12.37-11.546-22.69-10.675a17.848,17.848,0,0,0-6,2c-6.09,3.009-16.62,14.055-24.02,13.344-5.59-.536-7.64-6.439-12.68-6-7.7.662-15.16,15.24-11.34,21.015,4.49,6.789,23.3-3.26,38.03,3,31.3,13.308,37.23,75.262,28.69,78.731-2.59,1.051-5.17-3.821-8.68-2.669-6.49,2.134-9.38,22-.66,33.361,3.67,4.792,8.61,6.734,11.34,8.006,15.27,7.122,30.33,43.655,38.03,103.417a20.346,20.346,0,0,1,0,4.671c-2.07,15.336-24.75,27.691-45.37,30.691-24.68,3.592-52.37-12.114-58.71-4.67-8.43,9.882,26.99,49.221,14.67,60.716-6.56,6.124,23.59,1.189,23.8,1.355,2.9,2.252-12.4-14.181,4.89-33.381,15.56-17.272,53.13,4.665,80.74-16.013,6.14-4.6,16.56-14.585,18.01-28.023,1.77-16.358-10.81-26.622-20.68-44.036-18.62-32.851-18.03-75.005-4.67-82.733,4.47-2.589,7.87.18,12.67-2,17.29-7.856,23.24-59.288,1.34-94.744-8.64-13.986-18.29-19.988-16.68-29.357,2.66-15.519,34.06-16.874,81.4-31.359,24.58-7.519,50.68-17.315,80.73-7.339,14.72,4.886,24.94,12.587,24.02,15.346-1.45,4.314-29.47-6.8-43.37,6-13.24,12.2-4.13,39.147-18.68,48.039-3.49,2.133-9.74,1.824-10.68,4.67-1.73,5.267,11.43,16.9,26.02,19.349,22.53,3.785,41.36-15.548,47.38-22.685,19.42-23.029,24.82-60.332,10.67-72.058-5.71-4.736-13.17-2.315-18.68-8.674-5.82-6.714-5.78-18.73-.67-26.688,6.41-9.97,20.3-11.5,28.03-11.343C1696.89,69.175,1705.56,76.01,1710.8,72.978Z"/>
</svg>
