<svg xmlns="http://www.w3.org/2000/svg" width="2381" height="2507" viewBox="0 0 2381 2507">
  <defs>
    <style>
      .cls-1 {
        fill: none;
        stroke: #000;
        stroke-width: 2.51px;
        fill-rule: evenodd;
      }
    </style>
  </defs>
  <path class="cls-1" d="M914.158,2115.3c-0.736.56-6.169,4.87-6,10.01,0.161,5.02,7.45,10.22,8.674,12.01,7.926,11.6,2.416,32.3-6.672,44.7-15.729,21.47-42.987,14.77-54.044,34.03-12.893,22.46,14.7,54.25.667,72.06-6.876,8.73-19.179,5.41-30.691,12.01-15.086,8.64-17.222,23.84-33.361,28.69-10.019,3-18.162-2.1-28.689,3.33-10.652,5.51-18.407,18.55-15.346,26.69,2.067,5.5,7.834,5.09,10.675,9.68,8.279,13.37-18.544,35.79-14.011,57.71,2.982,14.42,20.731,22.38,18.682,36.03-1.213,8.08-10.027,12.23-8.674,16.01,4.176,11.68,91.077-9.19,112.091-.66,1.217,0.49,4.026,1.78,6.672.66,9.223-3.91,1.763-31.04,12.677-37.36,5.8-3.36,13.33,2.18,18.682,2,29.64-1.01,74.32-145.49,78.063-152.79A369.736,369.736,0,0,1,1050,2199C996.21,2153.3,930.8,2102.69,914.158,2115.3Z"/>
</svg>
