<svg xmlns="http://www.w3.org/2000/svg" width="2381" height="2507" viewBox="0 0 2381 2507">
  <defs>
    <style>
      .cls-1 {
        fill: none;
        stroke: #000;
        stroke-width: 2.51px;
        fill-rule: evenodd;
      }
    </style>
  </defs>
  <path class="cls-1" d="M911.489,2084.61c-4.653-4.43-9.186-5.66-15.345-10.01-28.7-20.26-85.4,19.47-106.086,30.69a15.421,15.421,0,0,0-6,5.34c-4.24,6.96.673,20.25,0.667,24.02-0.028,16.16-13.072,34.48-26.688,35.36-15.1.98-29.09-19.6-31.359-37.36-0.644-5.04.483-8.29,0-13.35-3.052-31.95-49.039-54.27-60.049-54.71a8.908,8.908,0,0,1-2.669-.66c-7.559-3.58-9.078-21.37-3.336-25.03,4.662-2.97,11.886,4.94,19.349,2.34,7.357-2.56,10.016-11.79,10.676-15.34,4.5-24.27-30.411-60.78-60.716-58.72-19.486,1.33-31.271,23.08-48.039,19.35-12.089-2.69-20.827-16.91-23.353-28.69-3.275-15.28,4.782-26.65,4.671-41.37-0.12-15.78-5.832-34.79-16.68-38.03-5.086-1.52-9.151,1.07-14.012,2.67-16.489,5.44-31.226-4.51-48.706-11.34-48.139-18.81-90.628-2.2-99.414,2.67a38.969,38.969,0,0,0-6,4c-8.466,7.06-7.435,14.95-14.011,19.35-12.038,8.06-29.332-8.69-43.369-2-14.783,7.05-13.4,34.33-20.016,34.69-4.367.24-9.277-11.24-10.008-21.35-0.366-5.06-.344-19.97,9.341-26.02,6.668-4.17,14.652-1.8,20.016-.67,23.933,5.05,50.28-3.54,50.708-8.67,0.362-4.33-17.467-10.17-33.36-11.34-26.72-1.97-56.254,18.72-58.048,20.01a6.905,6.905,0,0,0-2.668,3.34c-1.15,3.38,1.469,6.4,2.668,9.34,4.635,11.35-8.455,30.43-22.017,41.37-4.484,3.61-16.6,8.3-22.685,17.35-5.457,8.11-3.178,15.22-9.341,21.35-12.251,12.17-36.291,1.04-58.715-2.67a9.883,9.883,0,0,1-6-2.67c-6.451-6.91,5.468-25.35,4-39.37-2.967-28.4-38.791-52.6-52.71-45.7-6.352,3.14-5.686,12.82-12.677,15.01-6.479,2.03-13.616-5.52-20.016-6.67-15.322-2.76-32.627,11.76-41.367,24.69-14.569,21.55-4.613,42.23-21.351,62.71-5,6.13-13.746,8.95-16.013,16.68-9.1,31.07,69.231,83.98,87.4,90.74a22.424,22.424,0,0,1,6.672,4.01c7.178,6.75,6.248,17.37,6.672,25.02,1.464,26.39,23.858,48.16,33.36,56.04,6.024,4.99,20.691,15.6,28.023,11.01,3.865-2.41,4.024-9.4,6.672-9.67,3.919-.41,6.9,14.04,12.677,14.34,3.834,0.2,5.822-6.58,10.008-9.01,12.352-7.14,29.6,10.96,44.036,4.34,3.674-1.68,5.284-4.52,8.674-8,5.627-5.79,21.506-20.12,36.029-17.35,11.214,2.14,22.836,20.56,26.021,23.35,18.563,16.25,47.471,22.4,56.046,13.34,2.949-3.11,4.013-8.56,2-10.67-3.771-3.96-17.478,6.27-30.691,3.34-9.421-2.1-16.9-8.87-16.013-11.35,1.733-4.85,38.555-1.13,62.05.67a14.938,14.938,0,0,0,8.674-1.33c9.681-5.15,6.188-20.57,14.678-27.36,9.845-7.87,29.578-2.61,40.7,7,27.565,23.84,27.03,96.28-17.348,122.44-41.315,24.35-97.381-5.1-102.082-22.69a5.519,5.519,0,0,0-2-3.33c-8.6-5.95-47.914,17.37-47.372,48.04,0.452,25.58,28.445,47.21,38.7,42.7,1.428-.63,2.57-1.78,3.336-1.34,2.131,1.24-4.874,12.36-3.336,22.02,3.767,23.65,46.591,34.77,71.392,33.36,8.157-.46,13.332-2.24,15.345-6,3.582-6.7-6.5-19.56-8.006-28.69-3.175-19.26,7.68-41.56,20.683-44.71,5.081-1.23,7.756,1.13,12.677,2.01,36.076,6.39,84.162-91.35,98.747-100.09,0.624-.37,3.121-1.79,3.336-4,0.365-3.75-6.14-6.74-10.008-9.34-19.12-12.84-14.15-43.86-25.354-80.07-10.449-33.77-25.307-49.07-37.364-52.04-18.38-4.52-41.943,7.9-52.709,26.02-11.572,19.48-.439,39.74-13.344,54.05-18.07,20.03-59.976,4.06-76.729,4.67-0.9.03-3.262,0.17-4.671-1.34-4.281-4.56,6.573-17.59,2.669-22.68-5.963-7.78-40.195,9.54-42.7,5.34-2.48-4.16,29.234-24.21,25.354-34.7-1.66-4.49-9.245-5.71-13.344-6-27.147-1.92-51.186,36.72-48.039,40.03,3.418,3.59,41.441-31.9,45.37-27.69,2.476,2.65-9.475,20.14-26.021,32.36-19.623,14.49-54.644,27.55-89.406,12.68-47.358-20.27-65.6-82.77-46.037-123.77,10.443-21.89,35.733-46.36,59.381-42.37,20.4,3.45,31.94,32.22,43.369,28.69,4.529-1.4,7.744-7.29,8.006-12.01,0.283-5.09-3.36-7.7-2.669-12.68,0.81-5.83,7.048-11.51,11.343-10.67,7.734,1.52,5.568,23.53,15.345,26.69,6.252,2.02,15.565-3.85,16.014-9.34,0.291-3.58-3.331-5.26-3.336-9.34-0.007-4.33,3.7-9.04,7.339-9.34,4.932-.42,7.955,8.46,13.344,11.34,13.416,7.16,37.743-6.06,53.377-22.69,15.313-16.29,27.409-41.35,36.7-59.38,2.253-4.37,7.9-15.02,16.013-15.34,7.518-.3,11.65,9.68,18.682,12.67,18.727,7.98,41.82-18.43,67.388-19.35,24.087-.86,49.856,13.13,52.042,28.03,2.081,14.18-19.764,25.65-16.013,37.36,3.651,11.4,28.574,10.35,30.692,20.68,1.172,5.72-6.276,9.29-7.34,16.02-2.536,16.04,24.335,29.65,20.684,42.03-1.781,6.04-10.831,7.21-10.676,11.34,0.3,7.88,34.916,8.18,53.377,27.36,8.987,9.34,7.238,17.5,17.347,24.68,18.771,13.35,48.544,1.07,74.061,8.01,13.252,3.61,19.336,8.35,21.35,14.01,3.46,9.73-6.46,18.66-5.337,30.03,1.582,16.02,18.9,26.83,29.357,30.69,26.766,9.88,60.341-5.85,66.721-26.02,3.22-10.18-3.947-21.18,2-29.36,6.1-8.38,21.238-4.73,32.026-10.01,9.371-4.58,15.53-16.89,25.354-16.68,11.3,0.24,17.224,15.49,27.356,14.01,6.479-.94,8.883-9.51,14.678-8.67C911.2,2102.32,915.088,2088.03,911.489,2084.61Z"/>
</svg>
