<svg xmlns="http://www.w3.org/2000/svg" width="2381" height="2507" viewBox="0 0 2381 2507">
  <defs>
    <style>
      .cls-1 {
        fill: #085;
        stroke: #fff;
        stroke-width: 8px;
        fill-rule: evenodd;
      }
    </style>
  </defs>
  <path class="cls-1" d="M1710.8,72.978c12.24-7.08,10.93-58.463-18.68-70.392-20.96-8.448-50.13,5.281-53.37,21.351-3.01,14.882,17.77,24.33,16.01,41.367-1.98,19.144-29.56,37.917-48.71,33.028-15.31-3.908-15.81-20.605-31.36-26.021-18.13-6.316-34.8,11.466-49.37,3.336-12.94-7.222-9-28.008-20.68-32.693-15.04-6.031-33.27,24.069-56.72,21.351-12.77-1.482-23.37-16.029-32.02-12.01-4.51,2.1-7.55,8.25-6.01,12.01,2.35,5.712,15.37,2.7,23.36,8.007,19.09,12.691,9.17,49.085,9.34,71.392,0,1.014.05,5.012-2,6-4.25,2.049-12.37-11.546-22.69-10.675a17.848,17.848,0,0,0-6,2c-6.09,3.009-16.62,14.055-24.02,13.344-5.59-.536-7.64-6.439-12.68-6-7.7.662-15.16,15.241-11.34,21.015,4.49,6.789,23.3-3.259,38.03,3,31.3,13.309,37.23,75.262,28.69,78.731-2.59,1.051-5.17-3.821-8.68-2.669-6.49,2.134-9.38,22-.66,33.361,3.67,4.792,8.61,6.734,11.34,8.006,15.27,7.122,30.33,43.655,38.03,103.417a20.346,20.346,0,0,1,0,4.671c-2.07,15.336-24.75,27.691-45.37,30.691-24.68,3.592-52.37-12.114-58.71-4.67-8.43,9.882,25.24,45.293,14.67,60.716-1.37,2-4.53,5.179-8.67,5.338-8.83.339-12.4-14.319-22.02-15.346-8.94-.955-20.08,9.092-23.35,20.016-1.18,3.944-.43,13.271-3.34,14.679-4.48,2.174-13.62-10.1-17.34-8.007-3.08,1.729,1.03,12.071-2.67,19.349-4.64,9.12-18.22,13.745-22.69,10.008-5.69-4.758,5.16-21.606-2-28.69-2.98-2.947-7.33-2.939-9.34-2.669-13.23,1.78-19.79,28.294-24.02,27.356-3.92-.868.53-23.88-9.34-30.692-6.39-4.411-15.31-.4-22.02,1.335-48.47,12.511-121.84-59.913-112.09-81.4,3.41-7.511,15.41-5,19.35-14.011,4.17-9.541-10.29-28.755-12.01-34.028-9.5-29.112,16.25-55.707,4-72.058-11.39-15.208-49.01-14.373-73.39,2.669-17,11.882-32.03,35.282-44.035,60.049-1.669,3.443-6.709,14.08-15.346,15.345-7.4,1.085-11-5.82-18.014-4.67-10.352,1.695-11.783,18.235-22.686,20.683-6.679,1.5-10.771-3.808-17.347-4-16.542-.491-31.329,21.188-37.364,36.7-12.45,31.995,1.541,66.48,6.673,66.053,3.25-.27,1.785-14.846,11.342-21.351,6.306-4.291,12.028-2.207,21.351-3.336,10.761-1.3,16.6-6.917,26.021-10.008,9.626-3.157,35.062-9.685,42.034,0,3.92,5.446-.6,15.12,2.669,17.012,3.668,2.128,11.032-9.215,19.352-9,13.06,0.33,28.02,38.319,34.02,46.037,19.19,24.652,38.02,24.049,60.05,46.7,15.01,15.436,18.45,29.33,32.03,46.037,37.09,45.623,103.92,77.032,108.09,78.731a8.919,8.919,0,0,1,2,1.334c6.78,6.483,1.82,28.883-10.68,35.362-10.45,5.42-25.59-3.636-29.35,1.334-2.83,3.742,4.09,12.2,3.33,20.684-0.87,9.742-8.58,19.568-16.01,20.016-5.51.333-10.31-5.653-14.68-7.339-10.02-3.871-20.15.985-26.02,3.336-17.67,7.073-70.22,4.1-86.07,2a14.267,14.267,0,0,1-4.67-1.335c-8.22-4.047-7.15-14.662-12.68-20.016-11.13-10.778-32.15,1.461-41.36-8.674-7.24-7.956,1.07-20.641-6.68-30.691-6.447-8.369-19.839-10.5-22.015-7.34-1.746,2.534,6.151,11.582,8.674,18.015,5.673,14.469,4.977,33.189-2.669,37.364-10.6,5.787-28.863-19.478-40.032-13.68-7.781,4.04-9.963,21.9-2.669,30.36,5.3,6.15,14.22,4.74,20.016,8.338,16.586,10.3,13.915,42.024,13.344,53.377-3.308,65.745,30.021,139.255,38.7,149.122,0.52,0.6,2.29,2.476,2,4.671-0.92,6.962-21.54,7.742-22.019,13.344-0.349,4.112,12.089,6.876,17.349,13.006,19.97,23.3-5.48,97.98-51.377,114.43-20.349,7.29-52.877-3.93-62.05,9.34-4.734,6.85.627,12.94-3.336,21.35-7.07,15.01-27.283,12.38-36.029,28.03-3.7,6.62-1.466,10.46-4.671,17.34-9.921,21.3-45.555,34.02-71.391,24.69-15-5.42-28.375-23.46-33.36-20.68-4.967,2.76,3,20.56-4.671,28.69-7.189,7.62-23.813,2-25.354,6-1.357,3.53,19.129,18.51,22.018,21.35,13.767,13.56,19.189,26.55,18.682,32.03-1.456,15.71-23.685,25.07-21.351,36.69,1.58,7.87,12.572,8.54,14.679,16.68,2.624,10.14-10.678,20.82-20.684,31.36-18.962,19.97-38.216,52.62-28.689,73.4,3.227,7.03,9.717,10.63,12.676,14.34,26.111,32.73.423,121.2-46.7,137.44-16.923,5.84-39.293-4.06-52.042,7.68-13.459,12.39-2.831,35.1-12.01,52.71-22.362,42.9-114.6,43.82-126.77,40.03a4.923,4.923,0,0,0-3.336,0c-5.151,2.12-7.415,16.48-2.668,26.02,12.35,24.81,109.427,19.44,134.108,24.69,26.472,5.63,52.074,23.15,64.052,27.35,1.673,0.59,6.736,2.27,8.674,6.68,2.616,5.94-4.044,14.81-4.67,17.67-7.332,33.57,94.487,75.79,92.074,118.77-0.277,4.94-1.79,9.89.667,16.35,3.842,10.09,16.049,15.69,20.684,21.01,6.748,7.75,6.947,15.03,11.342,25.02,7.662,17.43,23.564,40.43,37.364,38.7,11.627-1.45,13.329-19.97,28.69-26.69,6.28-2.74,14.339-1.09,20.684-6.67,8.176-7.19,5.816-18.07,11.342-26.02,10.9-15.68,40.63-20.76,54.044-10.01,25.66,20.57-13.954,97.65-24.02,116.1-5.947,10.89-13.365,20.8-22.017,20.68-6.424-.09-9.187-5.66-15.346-10.01-28.7-20.26-85.4,19.47-106.086,30.69a15.421,15.421,0,0,0-6,5.34c-4.24,6.96.673,20.25,0.667,24.02-0.028,16.16-13.072,34.48-26.688,35.36-15.1.98-29.09-19.6-31.359-37.36-0.644-5.04.483-8.29,0-13.35-3.052-31.95-49.039-54.27-60.049-54.71a8.6,8.6,0,0,1-2.669-.66c-7.559-3.58-9.078-21.37-3.336-25.03,4.662-2.97,11.886,4.94,19.349,2.34,7.357-2.56,10.016-11.79,10.676-15.34,4.5-24.27-30.411-60.78-60.716-58.72-19.486,1.33-31.27,23.08-48.039,19.35-12.089-2.69-20.827-16.91-23.352-28.69-3.276-15.28,4.781-26.65,4.67-41.37-0.12-15.78-5.832-34.79-16.68-38.03-5.086-1.52-9.151,1.07-14.012,2.67-16.489,5.44-31.226-4.51-48.706-11.34-48.139-18.81-90.628-2.2-99.414,2.67a38.969,38.969,0,0,0-6,4c-8.465,7.06-7.435,14.95-14.011,19.35-12.038,8.06-29.332-8.69-43.369-2-14.783,7.05-13.4,34.33-20.016,34.69-4.367.24-9.277-11.24-10.008-21.35-0.366-5.06-.344-19.97,9.341-26.02,6.668-4.17,14.652-1.8,20.016-.67,23.933,5.05,50.28-3.54,50.708-8.67,0.362-4.33-17.467-10.17-33.36-11.34-26.72-1.97-56.254,18.73-58.047,20.01a6.9,6.9,0,0,0-2.669,3.34c-1.15,3.38,1.469,6.4,2.669,9.34,4.634,11.35-8.456,30.43-22.018,41.37-4.483,3.61-16.6,8.3-22.685,17.35-5.457,8.11-3.177,15.22-9.341,21.35-12.251,12.17-36.291,1.04-58.715-2.67a9.878,9.878,0,0,1-6-2.67c-6.452-6.91,5.467-25.35,4-39.37-2.967-28.4-38.791-52.6-52.71-45.7-6.352,3.14-5.686,12.82-12.677,15.01-6.479,2.03-13.616-5.52-20.016-6.67-15.323-2.76-32.627,11.76-41.367,24.69-14.569,21.55-4.613,42.23-21.351,62.71-5,6.13-13.746,8.95-16.013,16.68-9.1,31.07,69.231,83.98,87.4,90.74a22.425,22.425,0,0,1,6.672,4.01c7.178,6.75,6.248,17.37,6.672,25.02,1.464,26.39,23.858,48.16,33.36,56.04,6.024,4.99,20.691,15.6,28.023,11.01,3.865-2.41,4.024-9.4,6.672-9.67,3.919-.41,6.9,14.04,12.677,14.34,3.834,0.2,5.822-6.58,10.008-9.01,12.352-7.14,29.6,10.96,44.036,4.34,3.674-1.68,5.284-4.52,8.674-8,5.627-5.79,21.506-20.12,36.029-17.35,11.215,2.14,22.836,20.56,26.021,23.35,18.563,16.25,47.471,22.4,56.046,13.34,2.949-3.11,4.013-8.56,2-10.67-3.771-3.96-17.477,6.27-30.691,3.34-9.421-2.1-16.9-8.87-16.013-11.35,1.733-4.85,38.555-1.13,62.05.67a14.938,14.938,0,0,0,8.674-1.33c9.681-5.15,6.188-20.57,14.678-27.36,9.845-7.87,29.578-2.61,40.7,7,27.565,23.84,27.03,96.28-17.347,122.44-41.316,24.35-97.382-5.1-102.083-22.69a5.519,5.519,0,0,0-2-3.33c-8.6-5.95-47.914,17.37-47.372,48.04,0.452,25.58,28.445,47.21,38.7,42.7,1.428-.63,2.57-1.78,3.336-1.34,2.131,1.24-4.874,12.36-3.336,22.02,3.767,23.65,46.591,34.77,71.392,33.36,8.157-.46,13.332-2.24,15.345-6,3.582-6.7-6.5-19.56-8.006-28.69-3.175-19.26,7.68-41.56,20.683-44.71,5.081-1.23,7.757,1.13,12.677,2.01,36.076,6.39,84.162-91.35,98.747-100.09,0.624-.37,3.121-1.79,3.336-4,0.365-3.75-6.14-6.74-10.008-9.34-19.12-12.84-14.15-43.86-25.354-80.07-10.449-33.77-25.307-49.07-37.364-52.04-18.38-4.52-41.942,7.9-52.709,26.02-11.572,19.48-.439,39.74-13.344,54.05-18.07,20.03-59.976,4.06-76.729,4.67-0.9.03-3.262,0.17-4.67-1.34-4.282-4.56,6.572-17.59,2.668-22.68-5.963-7.78-40.195,9.54-42.7,5.34-2.48-4.16,29.234-24.21,25.354-34.7-1.66-4.49-9.245-5.71-13.344-6-27.147-1.92-51.186,36.72-48.039,40.03,3.418,3.59,41.441-31.9,45.37-27.69,2.477,2.65-9.475,20.14-26.021,32.36-19.623,14.49-54.644,27.55-89.406,12.68-47.358-20.27-65.6-82.77-46.037-123.77,10.443-21.89,35.733-46.36,59.381-42.37,20.4,3.45,31.94,32.22,43.369,28.69,4.529-1.4,7.744-7.29,8.006-12.01,0.283-5.09-3.36-7.7-2.669-12.68,0.81-5.83,7.048-11.51,11.343-10.67,7.734,1.52,5.568,23.53,15.346,26.69,6.252,2.02,15.564-3.85,16.013-9.34,0.291-3.58-3.331-5.26-3.336-9.34-0.007-4.33,3.7-9.04,7.339-9.34,4.932-.42,7.955,8.46,13.344,11.34,13.416,7.16,37.744-6.06,53.377-22.69,15.313-16.29,27.409-41.35,36.7-59.38,2.253-4.37,7.9-15.02,16.013-15.34,7.518-.3,11.65,9.68,18.682,12.67,18.728,7.98,41.82-18.43,67.388-19.35,24.087-.86,49.856,13.13,52.042,28.03,2.081,14.18-19.764,25.65-16.013,37.36,3.651,11.4,28.574,10.35,30.692,20.68,1.172,5.72-6.276,9.29-7.34,16.02-2.536,16.04,24.335,29.65,20.684,42.03-1.781,6.04-10.831,7.21-10.675,11.34,0.3,7.88,34.915,8.18,53.376,27.36,8.988,9.34,7.238,17.5,17.348,24.68,18.77,13.35,48.543,1.07,74.06,8.01,13.252,3.61,19.336,8.35,21.35,14.01,3.46,9.73-6.46,18.66-5.337,30.03,1.583,16.03,18.9,26.83,29.357,30.69,26.767,9.88,60.341-5.85,66.721-26.02,3.22-10.18-3.947-21.18,2-29.36,6.1-8.38,21.238-4.73,32.026-10.01,9.371-4.58,15.53-16.89,25.354-16.68,11.3,0.24,17.224,15.49,27.356,14.01,6.479-.94,8.842-9.15,14.678-8.67,5.461,0.45,11.094,8.15,10.008,14.01-0.832,4.5-5.684,5.79-6,10.01-0.35,4.6,7.449,10.22,8.673,12.01,7.926,11.6,2.416,32.3-6.672,44.7-15.729,21.47-42.986,14.77-54.044,34.03-12.893,22.46,14.7,54.25.667,72.06-6.876,8.73-19.179,5.41-30.691,12.01-15.086,8.64-17.222,23.84-33.36,28.69-10.02,3.01-18.163-2.1-28.69,3.33-10.652,5.51-18.407,18.55-15.346,26.69,2.067,5.5,7.834,5.09,10.675,9.68,8.279,13.37-18.544,35.79-14.011,57.71,2.982,14.42,20.731,22.38,18.682,36.03-1.213,8.08-10.027,12.23-8.674,16.01,4.176,11.68,91.077-9.19,112.091-.66,1.217,0.49,4.026,1.78,6.672.66,9.223-3.91,1.763-31.04,12.677-37.36,5.8-3.36,13.33,2.18,18.682,2,28.969-.99,40.4-78.66,78.063-152.79,21.692-42.7,51.882-79.04,66.722-90.74,75.24-59.34,191.43-42.97,214.84-47.37,1.12-.21,3.88-0.83,6,0.66,5.16,3.63-.13,15.12,5.34,20.69,3.73,3.79,11.19,4.33,14.68,1.33,3.7-3.18,1.63-10.68,3.34-15.34,5.16-14.09,28.92-21.97,36.69-15.35,5.72,4.87-.58,14.72,4.01,18.68,16.02,13.84,124.37-78.18,136.11-98.74,0.63-1.11,1.93-3.67,4.67-4.67,8.19-3,17.76,13.08,31.36,14.01,9.5,0.65,12.03-5.22,20.68-6.01,22.44-2.05,36.06,26.68,54.71,22.69,11.4-2.44,17.71-19.35,26.02-17.35,4.45,1.07,4.74,6.22,10.01,8.01,5.8,1.97,13.65-.94,16.68-6.01,1.91-3.18.58-5.41,2-8,6.61-12.13,56.81-9.87,68.06,16.34,4.48,10.43,3.55,26.41-5.34,33.36-5.98,4.67-12.98,2.06-17.35,6.67-8.4,8.88,2.85,33.45,10.68,47.04,34.28,59.57,104.85,94.75,110.75,97.41,104.71,47.22,384.09,207.2,411,230.52,1.45,1.26,7.64,6.86,12.01,5.01,4.01-1.69,4.6-9.15,4.67-10.68,2.37-47.58-223.02-141.23-235.52-147.45a17.764,17.764,0,0,1-5.34-4,23.186,23.186,0,0,1-2.67-4.01c-7.14-14.55-90.05-21.57-113.42-58.04-6.14-9.58-5.49-30.08-18.68-37.37-9.61-5.3-15.66.37-25.36-4.67-13.66-7.09-14.61-28.38-25.35-30.02-6.37-.98-10.27,6.16-16.68,7.34-18.71,3.44-42.92-28.46-53.38-58.05-19.22-54.35,2.71-117.91,20.68-118.76,11.42-.55,15.73,24.76,34.7,28.69,17.82,3.69,38.99-10.87,38.03-20.02-1.26-11.92-41.62-9.49-61.38-34.03-17.63-21.88-23.25-62.39-1.34-86.07,17.77-19.19,48.01-21.35,69.39-13.34,27.3,10.22,38.35,36.23,58.72,70.72,23.13,39.19,43.54,60.08,56.04,60.05,24.61-.06,53.16-37.63,60.72-74.72,3.12-15.31,2.13-27.35,12.01-38.7,5.73-6.59,30.86-15.22,65.38-15.35,3.65-.01,13.25.19,14.68,4.34,2.02,5.82-14.1,15.17-12.01,20.01,1.8,4.16,16.76.55,27.36,5.68,11.24,5.43,18.46,17.34,16.01,21.35-3.33,5.44-23.78-4.92-30.69,3.33-2.65,3.17-2.29,7.59-2,9.34,2.19,13.08,26.18,18.25,25.35,24.02-0.71,4.97-19.47,3.08-28.02,12.01-20.32,21.24,8.54,88.75,22.68,87.07,4.07-.48,5.53-8.16,10.01-12.34,12.93-12.03,31.44-4.14,57.38-7.34,19.79-2.44,48.17-11.84,52.71-29.36,2.8-10.77-5.83-17.86-2-30.02,3.21-10.19,13.3-13.72,18.68-21.35,9.18-13,3.69-21.35,12.68-33.36,13.05-17.44,43.32-24.97,58.71-14.35,17.81,12.29,7.22,46.13,24.69,55.05,7.17,3.66,16.55,1.88,21.35-2.67,12.58-11.91.84-49.32-14.01-56.05-1.11-.5-3.89-1.59-4-3.33-0.19-2.97,8.01-4.24,10.67-9.01,6.03-10.82-11.75-31.12-17.35-37.03-17.32-18.3-35.66-23.47-42.7-23.02-14.3.92-31.37,9.88-35.36,23.69-2.48,8.58,2.94,21.02-1.33,24.02-2.75,1.92-6.4-1.5-10.01.33-4.77,2.42-3.28,10.25-8.01,14.68-4.16,3.9-7.7,1.61-12.01,5-7.17,5.65-3.8,15.38-10.67,22.02-4.8,4.64-12.93,6.83-16.68,4-6.16-4.63,1.9-21.26-4.01-25.35-4.25-2.95-13.73,4.25-21.35,4.67-16.64.92-35.45-14.65-36.03-28.69-0.55-13.41,17.44-20.57,15.35-29.69-2.87-12.52-40.32-15.7-72.73-13.01-58.19,4.82-87.55,21.02-96.74,40.7-9.46,20.24,2.77,34.81-7.34,59.38-6.77,16.45-21.57,34.18-36.03,33.36-13.85-.78-21.6-18.21-35.36-42.03-31.47-54.48-66.1-79.82-78.73-79.4-1.41.05-5.39,0.39-7.34-2-3.6-4.41,3.87-13.65,1.33-22.02-2.04-6.72-8.92-12.44-14.68-12.01-4.66.35-6.43,4.97-10.67,6.67-8.71,3.5-14.61-4.21-23.35-1.33-7.18,2.36-8.8,10.64-16.02,11.34-5.02.49-10.8-2.78-13.34-7.34-4.42-7.93,2.94-19.88-.67-22.68-2.61-2.03-7.79,3.12-12.01,1.33-6.33-2.7-3.38-16.23-10.67-22.02-5.19-4.11-12.25-1.05-15.35-5.34-4.49-6.2,6.84-18.33,5.34-30.02-1.89-14.71-17.03-16.45-21.35-29.36-9.15-27.3,33.65-56.68,23.35-84.06-1.45-3.87-4.52-6.27-5.34-11.35-2.28-14.22,11.95-24.18,13.35-38.03,1.37-13.58-6.77-23.18-12.01-32.02-30.12-50.74,12.32-140.17,12.67-160.8,0.03-1.54.06-6.42,3.34-9.34,9.57-8.53,41.68,4.08,56.05,27.35,8.27,13.42,8.61,27.19,8.67,34.03,0.24,28.54-2.46,52.97,3.34,72.73,4.1,13.97,17.09,45.25,46.03,56.04,22.56,8.41,55.18-2.18,103.42-23.35,17.65-7.75,48.63-21.34,66.72-8.01,13.08,9.65,10.65,30.44,24.69,37.37,12.08,5.96,27.22-2.59,34.03-6.01,56.91-28.58,151.85-8.67,166.8.67,0.14,0.09,4,2.5,5.33,1.33,2.43-2.13-7.31-13.09-4-21.35,3.92-9.76,23.38-9.84,24.02-16.01,0.44-4.26-9.07-7.26-12.01-14.68-2.39-6.04-1.57-14.29,2.67-17.35,4.79-3.45,11.53,1.87,15.35-1.33,4.52-3.8,2.11-17.26-5.34-25.35-12.33-13.39-38.15-11.51-56.05-4.01-10.69,4.48-15.49,10.5-26.02,15.35-15.15,6.98-39.69,12.59-52.04,1.33-3.31-3.01-4.05-5.79-6.01-9.34-14.07-25.5-63.42-21.34-69.39-41.37-3.41-11.46,10.75-19.31,8.01-32.02-4.02-18.64-38.59-30.12-66.72-28.69-26.22,1.33-57.24,14.74-77.4,40.03-7.59,9.52-13.97,20.34-26.68,29.36-12.8,9.08-27.07,15.74-36.03,10.67-11.25-6.35-9.39-28.27-8.68-64.05,0.65-32.45-.9-59.48-18.01-72.06-6.76-4.96-13.68-4.09-20.02-10.67-18.8-19.52-1.35-68.36,21.35-98.75,11.9-15.92,27.76-30.42,35.37-26.69,7.11,3.49,2.02,20.58,11.34,27.36,6.49,4.72,18.68.33,23.35,0.67,26.78,1.91,35.88,36.55,61.38,37.36,8.2,0.26,15.36-4.82,26.69-11.34,28.48-16.39,47.91-22.4,50.71-38.03,1.67-9.33-1.51-21.95-10.01-28.03-7.74-5.53-19.69-2.63-21.35-6.67-2.37-5.74,20.11-15.37,25.35-31.36,10.39-31.61-32.48-80.41-47.37-90.74-0.84-.58-4.42-3.01-4-5.34,0.92-5.11,21.38-2.87,33.36-12.67,11.96-9.78,13.58-25.57,14.68-33.36,4.3-30.42,20.89-60.747,30.02-98.75,7.82-32.525,10.83-51.66,1.34-64.052-21.17-27.623-94.11-24.831-97.42-24.686-0.92.04-4.69,0.229-5.33-1.335-0.93-2.257,6.67-5.213,8.67-10.008,8.21-19.671-53.41-54.071-47.37-86.737,1.6-8.679,8.27-11.97,8.67-22.685,0.58-15.371-11.32-20.414-12.67-33.028-2.92-27.1,37.78-41.173,37.36-69.055-0.31-20.141-20.68-39.911-40.7-45.37-30.12-8.21-61.97,24.725-90.07,31.691-36.5,9.046-89.87-.565-105.42,10.343-0.89.622-3.77,2.784-6.67,2-4.65-1.25-6.1-11.9-8.01-15.014-10.62-17.316-42.05-6.181-58.72-20.016-25.31-21.02-4.57-76.98-21.35-84.069-5.72-2.42-14.23,1.469-16.01,6.341-1.57,4.3,2.45,8.376,5.34,13.676,10.3,18.866-5.04,33.948,2.67,53.044,6.65,16.5,44.08,37.78,46.7,40.033,11.51,9.9,17.98,18.845,18.68,24.687,2.89,23.834-31.07,56.641-67.38,54.711-36.73-1.953-65.01-38.863-62.05-60.716,0.32-2.373,1.27-6.692-.67-8.007-4.6-3.111-20.01,14.5-23.35,12.01-4.35-3.248,17.06-36.622,12.01-40.7-2.55-2.049-12.07,6.453-19.35,8.674-34.63,10.559-76.43-38.3-88.07-53.377-23.66-30.638-47.99-81.548-30.7-100.748,15.56-17.272,53.13,4.665,80.74-16.013,6.14-4.6,16.56-14.585,18.01-28.023,1.77-16.358-10.81-26.622-20.68-44.036-18.62-32.851-18.03-75.005-4.67-82.733,4.47-2.589,7.87.18,12.67-2,17.29-7.856,23.24-59.288,1.34-94.744-8.64-13.986-18.29-19.988-16.68-29.357,2.66-15.519,34.06-16.874,81.4-31.359,24.58-7.519,50.68-17.315,80.73-7.339,14.72,4.886,24.95,12.587,24.02,15.346-1.45,4.315-29.47-6.8-43.37,6-13.24,12.2-4.13,39.147-18.68,48.039-3.49,2.133-9.74,1.824-10.68,4.67-1.73,5.267,11.43,16.9,26.02,19.349,22.53,3.785,41.36-15.548,47.38-22.685,19.42-23.029,24.82-60.332,10.67-72.058-5.71-4.736-13.17-2.315-18.68-8.674-5.82-6.714-5.78-18.73-.67-26.688,6.41-9.97,20.3-11.5,28.03-11.343C1696.89,69.175,1705.56,76.01,1710.8,72.978Z"/>
</svg>
